<svg xmlns="http://www.w3.org/2000/svg" version="1.1" xmlns:xlink="http://www.w3.org/1999/xlink" xmlns:svgjs="http://svgjs.com/svgjs" width="1920" height="1080" preserveAspectRatio="none" viewBox="0 0 1920 1080"><g mask="url(&quot;#SvgjsMask1058&quot;)" fill="none"><path d="M878 58L1647 -711" stroke-width="10" stroke="url(#SvgjsLinearGradient1059)" stroke-linecap="round" class="BottomLeft"></path><path d="M373 254L1002 -375" stroke-width="6" stroke="url(#SvgjsLinearGradient1060)" stroke-linecap="round" class="TopRight"></path><path d="M220 323L734 -191" stroke-width="8" stroke="url(#SvgjsLinearGradient1059)" stroke-linecap="round" class="BottomLeft"></path><path d="M1054 970L1859 165" stroke-width="10" stroke="url(#SvgjsLinearGradient1060)" stroke-linecap="round" class="TopRight"></path><path d="M1483 350L1950 -117" stroke-width="8" stroke="url(#SvgjsLinearGradient1059)" stroke-linecap="round" class="BottomLeft"></path><path d="M1772 377L2357 -208" stroke-width="6" stroke="url(#SvgjsLinearGradient1059)" stroke-linecap="round" class="BottomLeft"></path><path d="M1702 545L2155 92" stroke-width="10" stroke="url(#SvgjsLinearGradient1060)" stroke-linecap="round" class="TopRight"></path><path d="M1876 1032L2481 427" stroke-width="8" stroke="url(#SvgjsLinearGradient1060)" stroke-linecap="round" class="TopRight"></path><path d="M368 311L-315 994" stroke-width="10" stroke="url(#SvgjsLinearGradient1060)" stroke-linecap="round" class="TopRight"></path><path d="M534 445L146 833" stroke-width="10" stroke="url(#SvgjsLinearGradient1060)" stroke-linecap="round" class="TopRight"></path><path d="M46 422L-606 1074" stroke-width="10" stroke="url(#SvgjsLinearGradient1059)" stroke-linecap="round" class="BottomLeft"></path><path d="M1054 474L304 1224" stroke-width="6" stroke="url(#SvgjsLinearGradient1059)" stroke-linecap="round" class="BottomLeft"></path><path d="M78 1014L-633 1725" stroke-width="8" stroke="url(#SvgjsLinearGradient1059)" stroke-linecap="round" class="BottomLeft"></path><path d="M581 93L1354 -680" stroke-width="10" stroke="url(#SvgjsLinearGradient1060)" stroke-linecap="round" class="TopRight"></path><path d="M195 764L629 330" stroke-width="6" stroke="url(#SvgjsLinearGradient1060)" stroke-linecap="round" class="TopRight"></path><path d="M1369 424L967 826" stroke-width="6" stroke="url(#SvgjsLinearGradient1059)" stroke-linecap="round" class="BottomLeft"></path><path d="M1885 105L2194 -204" stroke-width="8" stroke="url(#SvgjsLinearGradient1060)" stroke-linecap="round" class="TopRight"></path><path d="M1064 562L1651 -25" stroke-width="6" stroke="url(#SvgjsLinearGradient1059)" stroke-linecap="round" class="BottomLeft"></path><path d="M860 579L1540 -101" stroke-width="10" stroke="url(#SvgjsLinearGradient1059)" stroke-linecap="round" class="BottomLeft"></path><path d="M60 646L-389 1095" stroke-width="10" stroke="url(#SvgjsLinearGradient1059)" stroke-linecap="round" class="BottomLeft"></path><path d="M664 721L1429 -44" stroke-width="10" stroke="url(#SvgjsLinearGradient1059)" stroke-linecap="round" class="BottomLeft"></path><path d="M891 830L1415 306" stroke-width="10" stroke="url(#SvgjsLinearGradient1060)" stroke-linecap="round" class="TopRight"></path><path d="M108 879L-163 1150" stroke-width="6" stroke="url(#SvgjsLinearGradient1060)" stroke-linecap="round" class="TopRight"></path><path d="M714 79L1057 -264" stroke-width="10" stroke="url(#SvgjsLinearGradient1059)" stroke-linecap="round" class="BottomLeft"></path><path d="M1359 501L921 939" stroke-width="10" stroke="url(#SvgjsLinearGradient1059)" stroke-linecap="round" class="BottomLeft"></path><path d="M932 140L1452 -380" stroke-width="6" stroke="url(#SvgjsLinearGradient1060)" stroke-linecap="round" class="TopRight"></path><path d="M1097 631L1799 -71" stroke-width="6" stroke="url(#SvgjsLinearGradient1059)" stroke-linecap="round" class="BottomLeft"></path><path d="M257 1006L594 669" stroke-width="10" stroke="url(#SvgjsLinearGradient1060)" stroke-linecap="round" class="TopRight"></path><path d="M38 203L439 -198" stroke-width="10" stroke="url(#SvgjsLinearGradient1059)" stroke-linecap="round" class="BottomLeft"></path><path d="M619 46L1428 -763" stroke-width="6" stroke="url(#SvgjsLinearGradient1059)" stroke-linecap="round" class="BottomLeft"></path><path d="M737 579L-7 1323" stroke-width="6" stroke="url(#SvgjsLinearGradient1060)" stroke-linecap="round" class="TopRight"></path><path d="M1763 71L2271 -437" stroke-width="6" stroke="url(#SvgjsLinearGradient1059)" stroke-linecap="round" class="BottomLeft"></path><path d="M335 533L13 855" stroke-width="8" stroke="url(#SvgjsLinearGradient1060)" stroke-linecap="round" class="TopRight"></path><path d="M860 822L585 1097" stroke-width="8" stroke="url(#SvgjsLinearGradient1060)" stroke-linecap="round" class="TopRight"></path><path d="M1590 824L1295 1119" stroke-width="8" stroke="url(#SvgjsLinearGradient1059)" stroke-linecap="round" class="BottomLeft"></path><path d="M176 304L-151 631" stroke-width="8" stroke="url(#SvgjsLinearGradient1059)" stroke-linecap="round" class="BottomLeft"></path><path d="M810 90L327 573" stroke-width="8" stroke="url(#SvgjsLinearGradient1060)" stroke-linecap="round" class="TopRight"></path><path d="M1679 458L2268 -131" stroke-width="8" stroke="url(#SvgjsLinearGradient1060)" stroke-linecap="round" class="TopRight"></path><path d="M203 782L561 424" stroke-width="8" stroke="url(#SvgjsLinearGradient1060)" stroke-linecap="round" class="TopRight"></path><path d="M888 1061L601 1348" stroke-width="6" stroke="url(#SvgjsLinearGradient1060)" stroke-linecap="round" class="TopRight"></path><path d="M1014 223L377 860" stroke-width="10" stroke="url(#SvgjsLinearGradient1059)" stroke-linecap="round" class="BottomLeft"></path><path d="M1617 571L1057 1131" stroke-width="6" stroke="url(#SvgjsLinearGradient1060)" stroke-linecap="round" class="TopRight"></path><path d="M1181 437L766 852" stroke-width="6" stroke="url(#SvgjsLinearGradient1060)" stroke-linecap="round" class="TopRight"></path><path d="M5 142L525 -378" stroke-width="6" stroke="url(#SvgjsLinearGradient1059)" stroke-linecap="round" class="BottomLeft"></path><path d="M206 463L-268 937" stroke-width="10" stroke="url(#SvgjsLinearGradient1060)" stroke-linecap="round" class="TopRight"></path><path d="M1274 463L1988 -251" stroke-width="6" stroke="url(#SvgjsLinearGradient1060)" stroke-linecap="round" class="TopRight"></path><path d="M1186 942L1663 465" stroke-width="8" stroke="url(#SvgjsLinearGradient1059)" stroke-linecap="round" class="BottomLeft"></path><path d="M284 183L-415 882" stroke-width="8" stroke="url(#SvgjsLinearGradient1059)" stroke-linecap="round" class="BottomLeft"></path><path d="M802 786L166 1422" stroke-width="6" stroke="url(#SvgjsLinearGradient1060)" stroke-linecap="round" class="TopRight"></path><path d="M686 712L1049 349" stroke-width="10" stroke="url(#SvgjsLinearGradient1059)" stroke-linecap="round" class="BottomLeft"></path><path d="M141 414L-519 1074" stroke-width="8" stroke="url(#SvgjsLinearGradient1060)" stroke-linecap="round" class="TopRight"></path><path d="M925 53L579 399" stroke-width="10" stroke="url(#SvgjsLinearGradient1059)" stroke-linecap="round" class="BottomLeft"></path><path d="M899 963L149 1713" stroke-width="10" stroke="url(#SvgjsLinearGradient1059)" stroke-linecap="round" class="BottomLeft"></path><path d="M248 80L618 -290" stroke-width="8" stroke="url(#SvgjsLinearGradient1060)" stroke-linecap="round" class="TopRight"></path><path d="M1155 741L1661 235" stroke-width="10" stroke="url(#SvgjsLinearGradient1059)" stroke-linecap="round" class="BottomLeft"></path><path d="M162 419L719 -138" stroke-width="8" stroke="url(#SvgjsLinearGradient1059)" stroke-linecap="round" class="BottomLeft"></path></g><defs><mask id="SvgjsMask1058"><rect width="1920" height="1080" fill="#ffffff"></rect></mask><linearGradient x1="100%" y1="0%" x2="0%" y2="100%" id="SvgjsLinearGradient1059"><stop stop-color="rgba(61, 92, 153, 0)" offset="0"></stop><stop stop-color="rgba(61, 92, 153, 1)" offset="1"></stop></linearGradient><linearGradient x1="0%" y1="100%" x2="100%" y2="0%" id="SvgjsLinearGradient1060"><stop stop-color="rgba(61, 92, 153, 0)" offset="0"></stop><stop stop-color="rgba(61, 92, 153, 1)" offset="1"></stop></linearGradient></defs></svg>